<?xml version="1.0" standalone="no"?>
<!DOCTYPE svg PUBLIC "-//W3C//DTD SVG 20010904//EN"
 "http://www.w3.org/TR/2001/REC-SVG-20010904/DTD/svg10.dtd">
<svg version="1.0" xmlns="http://www.w3.org/2000/svg"
 width="260.000000pt" height="260.000000pt" viewBox="0 0 260.000000 260.000000"
 preserveAspectRatio="xMidYMid meet">
<metadata>
Created by potrace 1.11, written by Peter Selinger 2001-2013
</metadata>
<g transform="translate(0.000000,260.000000) scale(0.100000,-0.100000)"
fill="#000000" stroke="none">
<path d="M1291 2586 c-7 -8 -23 -17 -36 -20 -14 -4 -25 -11 -25 -16 0 -6 -4
-10 -10 -10 -5 0 -44 -20 -86 -45 -41 -25 -79 -45 -84 -45 -4 0 -13 -7 -20
-15 -7 -8 -16 -12 -21 -9 -5 3 -9 1 -9 -4 0 -5 -12 -15 -27 -23 -16 -7 -57
-30 -92 -51 -34 -21 -67 -38 -71 -38 -4 0 -13 -7 -20 -15 -7 -8 -16 -13 -20
-10 -4 3 -13 -2 -20 -10 -7 -8 -16 -13 -20 -10 -4 3 -11 -2 -14 -11 -3 -8 -10
-12 -16 -9 -5 3 -10 2 -10 -3 0 -9 -50 -37 -62 -34 -5 1 -8 -3 -8 -9 0 -5 -4
-7 -10 -4 -5 3 -10 2 -10 -3 0 -5 -16 -17 -35 -26 -19 -9 -37 -21 -40 -26 -4
-6 -11 -8 -16 -5 -5 4 -9 1 -9 -5 0 -6 -4 -8 -10 -5 -5 3 -10 1 -10 -4 0 -6
-7 -11 -15 -11 -8 0 -15 -5 -15 -11 0 -5 -4 -7 -10 -4 -5 3 -10 1 -10 -4 0 -6
-6 -11 -14 -11 -8 0 -21 -7 -29 -15 -8 -8 -21 -16 -28 -17 -7 -2 -22 -11 -33
-20 -10 -10 -23 -15 -28 -12 -4 3 -8 0 -8 -5 0 -6 -7 -11 -15 -11 -8 0 -15 -5
-15 -11 0 -5 -3 -8 -8 -6 -4 3 -20 -5 -35 -17 l-28 -23 0 -638 c0 -351 2 -639
3 -640 2 -1 163 -93 358 -205 195 -111 367 -211 382 -221 15 -11 29 -19 32
-19 2 0 77 -43 167 -95 106 -62 168 -93 178 -89 9 4 19 6 24 6 4 -1 7 2 7 8 0
5 4 10 9 10 9 0 39 17 153 85 9 5 45 25 80 43 35 19 69 41 76 50 6 9 12 13 12
9 0 -6 94 48 410 231 52 31 111 65 131 76 20 12 61 35 90 52 64 35 102 58 109
62 3 2 5 292 5 644 0 630 0 641 -20 653 -11 7 -96 56 -190 110 -93 54 -222
128 -285 165 -63 37 -218 127 -345 201 -126 73 -239 138 -251 146 -18 11 -23
11 -33 -1z"/>
</g>
</svg>
